<svg xmlns="http://www.w3.org/2000/svg" width="73.981" height="75" viewBox="0 0 73.981 75">
  <g id="admin" transform="translate(-1.204 -1)">
    <g id="Group_141" data-name="Group 141" transform="translate(4.844 3.5)">
      <g id="Group_120" data-name="Group 120" transform="translate(12.261 6.446)">
        <g id="Group_117" data-name="Group 117" transform="translate(0 54.609)">
          <g id="Group_116" data-name="Group 116">
            <path id="Path_93" data-name="Path 93" d="M7.8,26.937a1.249,1.249,0,0,1,1.745-.275h0a1.248,1.248,0,0,1,.275,1.745h0a1.248,1.248,0,0,1-1.743.275h0A1.248,1.248,0,0,1,7.8,26.937Z" transform="translate(-7.565 -26.422)" fill="#fff"/>
          </g>
        </g>
        <g id="Group_119" data-name="Group 119" transform="translate(39.677)">
          <g id="Group_118" data-name="Group 118">
            <path id="Path_94" data-name="Path 94" d="M23.674,5.092a1.248,1.248,0,0,1,1.742-.275h0a1.247,1.247,0,0,1,.278,1.745h0a1.249,1.249,0,0,1-1.745.275h0a1.25,1.25,0,0,1-.275-1.745Z" transform="translate(-23.436 -4.579)" fill="#fff"/>
          </g>
        </g>
      </g>
      <g id="Group_125" data-name="Group 125" transform="translate(0.002 23.321)">
        <g id="Group_122" data-name="Group 122" transform="translate(0 20.857)">
          <g id="Group_121" data-name="Group 121">
            <path id="Path_95" data-name="Path 95" d="M3.523,19.733a1.251,1.251,0,0,1,1.575.8h0a1.252,1.252,0,0,1-.8,1.575h0a1.249,1.249,0,0,1-1.573-.8h0a1.248,1.248,0,0,1,.8-1.575Z" transform="translate(-2.661 -19.672)" fill="#fff"/>
          </g>
        </g>
        <g id="Group_124" data-name="Group 124" transform="translate(64.197)">
          <g id="Group_123" data-name="Group 123">
            <path id="Path_96" data-name="Path 96" d="M29.205,11.39a1.249,1.249,0,0,1,1.573.8h0a1.25,1.25,0,0,1-.8,1.575h0a1.251,1.251,0,0,1-1.575-.8h0a1.248,1.248,0,0,1,.8-1.575Z" transform="translate(-28.34 -11.329)" fill="#fff"/>
          </g>
        </g>
      </g>
      <g id="Group_130" data-name="Group 130" transform="translate(0 23.321)">
        <g id="Group_127" data-name="Group 127">
          <g id="Group_126" data-name="Group 126">
            <path id="Path_97" data-name="Path 97" d="M4.3,11.39a1.251,1.251,0,0,1,.8,1.575h0a1.25,1.25,0,0,1-1.575.8h0a1.248,1.248,0,0,1-.8-1.575h0a1.252,1.252,0,0,1,1.575-.8Z" transform="translate(-2.66 -11.328)" fill="#fff"/>
          </g>
        </g>
        <g id="Group_129" data-name="Group 129" transform="translate(64.198 20.858)">
          <g id="Group_128" data-name="Group 128">
            <path id="Path_98" data-name="Path 98" d="M29.976,19.733a1.248,1.248,0,0,1,.8,1.575h0a1.25,1.25,0,0,1-1.575.8h0a1.251,1.251,0,0,1-.8-1.575h0a1.252,1.252,0,0,1,1.575-.8Z" transform="translate(-28.339 -19.672)" fill="#fff"/>
          </g>
        </g>
      </g>
      <g id="Group_135" data-name="Group 135" transform="translate(12.262 6.447)">
        <g id="Group_132" data-name="Group 132" transform="translate(0)">
          <g id="Group_131" data-name="Group 131">
            <path id="Path_99" data-name="Path 99" d="M9.828,5.092A1.253,1.253,0,0,1,9.55,6.837h0A1.251,1.251,0,0,1,7.8,6.562h0A1.251,1.251,0,0,1,8.08,4.817h0a1.255,1.255,0,0,1,1.748.275Z" transform="translate(-7.565 -4.579)" fill="#fff"/>
          </g>
        </g>
        <g id="Group_134" data-name="Group 134" transform="translate(39.679 54.608)">
          <g id="Group_133" data-name="Group 133">
            <path id="Path_100" data-name="Path 100" d="M25.7,26.937a1.251,1.251,0,0,1-.277,1.745h0a1.252,1.252,0,0,1-1.745-.275h0a1.253,1.253,0,0,1,.277-1.745h0a1.248,1.248,0,0,1,1.745.275Z" transform="translate(-23.436 -26.422)" fill="#fff"/>
          </g>
        </g>
      </g>
      <g id="Group_140" data-name="Group 140" transform="translate(32.1)">
        <g id="Group_137" data-name="Group 137">
          <g id="Group_136" data-name="Group 136">
            <path id="Path_101" data-name="Path 101" d="M18,3.25A1.254,1.254,0,0,1,16.75,4.5h0A1.254,1.254,0,0,1,15.5,3.25h0A1.254,1.254,0,0,1,16.75,2h0A1.254,1.254,0,0,1,18,3.25Z" transform="translate(-15.5 -2)" fill="#fff"/>
          </g>
        </g>
        <g id="Group_139" data-name="Group 139" transform="translate(0 67.5)">
          <g id="Group_138" data-name="Group 138">
            <path id="Path_102" data-name="Path 102" d="M18,30.25a1.254,1.254,0,0,1-1.25,1.25h0a1.254,1.254,0,0,1-1.25-1.25h0A1.254,1.254,0,0,1,16.75,29h0A1.254,1.254,0,0,1,18,30.25Z" transform="translate(-15.5 -29)" fill="#fff"/>
          </g>
        </g>
      </g>
    </g>
    <path id="Path_103" data-name="Path 103" d="M22,32A10,10,0,1,1,32,22,10.01,10.01,0,0,1,22,32Zm0-17.5A7.5,7.5,0,1,0,29.5,22,7.509,7.509,0,0,0,22,14.5Z" transform="translate(16.194 16.5)" fill="#fff"/>
    <g id="Group_142" data-name="Group 142" transform="translate(7.223 6)">
      <path id="Path_104" data-name="Path 104" d="M17.552,18.5,10.9,27.657a19.621,19.621,0,0,0,2.032,1.458l6.655-9.163A8.724,8.724,0,0,1,17.552,18.5Z" transform="translate(7.327 20.256)" fill="#fff"/>
      <path id="Path_105" data-name="Path 105" d="M8.393,28.266a1.25,1.25,0,1,0,2.02,1.472l2.965-4.08q-1.046-.69-2.023-1.472Z" transform="translate(3.201 28.779)" fill="#fff"/>
      <path id="Path_106" data-name="Path 106" d="M26.742,7.373A1.25,1.25,0,1,0,24.722,5.9L21.757,9.98q1.046.69,2.023,1.472Z" transform="translate(23.607 0.582)" fill="#fff"/>
      <path id="Path_107" data-name="Path 107" d="M19.662,19.862,26.31,10.71a19.621,19.621,0,0,0-2.033-1.458l-6.655,9.162A8.829,8.829,0,0,1,19.662,19.862Z" transform="translate(17.404 6.378)" fill="#fff"/>
      <path id="Path_108" data-name="Path 108" d="M4.478,20.324A1.25,1.25,0,1,0,5.25,22.7l4.805-1.563c-.293-.778-.553-1.568-.773-2.375Z" transform="translate(-3.612 20.646)" fill="#fff"/>
      <path id="Path_109" data-name="Path 109" d="M19.01,16.592l-10.75,3.5a19.525,19.525,0,0,0,.765,2.378l10.772-3.5A8.562,8.562,0,0,1,19.01,16.592Z" transform="translate(3.361 17.388)" fill="#fff"/>
      <path id="Path_110" data-name="Path 110" d="M19.913,18.931l10.75-3.495a19.525,19.525,0,0,0-.765-2.378l-10.773,3.5A8.562,8.562,0,0,1,19.913,18.931Z" transform="translate(19.659 12.089)" fill="#fff"/>
      <path id="Path_111" data-name="Path 111" d="M31.389,14.075a1.25,1.25,0,1,0-.772-2.377L25.811,13.26c.293.777.553,1.567.772,2.375Z" transform="translate(29.688 9.955)" fill="#fff"/>
      <path id="Path_112" data-name="Path 112" d="M5.25,11.7a1.25,1.25,0,1,0-.775,2.377l4.807,1.562a24.709,24.709,0,0,1,.773-2.38Z" transform="translate(-3.611 9.956)" fill="#fff"/>
      <path id="Path_113" data-name="Path 113" d="M19.8,16.556l-10.773-3.5a19.848,19.848,0,0,0-.765,2.38l10.75,3.492A8.73,8.73,0,0,1,19.8,16.556Z" transform="translate(3.36 12.089)" fill="#fff"/>
      <path id="Path_114" data-name="Path 114" d="M31.391,20.324l-4.808-1.563a24.706,24.706,0,0,1-.772,2.38l4.805,1.56a1.25,1.25,0,1,0,.775-2.378Z" transform="translate(29.688 20.643)" fill="#fff"/>
      <path id="Path_115" data-name="Path 115" d="M19.126,18.967l10.772,3.5a19.848,19.848,0,0,0,.765-2.38l-10.75-3.493A8.729,8.729,0,0,1,19.126,18.967Z" transform="translate(19.66 17.388)" fill="#fff"/>
      <path id="Path_116" data-name="Path 116" d="M19.592,18.415,12.934,9.252A20.46,20.46,0,0,0,10.9,10.71l6.65,9.153A8.927,8.927,0,0,1,19.592,18.415Z" transform="translate(7.324 6.378)" fill="#fff"/>
      <path id="Path_117" data-name="Path 117" d="M10.417,5.9A1.25,1.25,0,1,0,8.392,7.372l2.965,4.08q.975-.784,2.023-1.472Z" transform="translate(3.199 0.58)" fill="#fff"/>
      <path id="Path_118" data-name="Path 118" d="M24.721,29.736a1.25,1.25,0,1,0,2.023-1.47l-2.965-4.08q-.975.784-2.022,1.472Z" transform="translate(23.605 28.779)" fill="#fff"/>
      <path id="Path_119" data-name="Path 119" d="M17.622,19.952l6.658,9.163a20.461,20.461,0,0,0,2.032-1.458L19.662,18.5A8.927,8.927,0,0,1,17.622,19.952Z" transform="translate(17.404 20.256)" fill="#fff"/>
      <path id="Path_120" data-name="Path 120" d="M18,9.313V4.25a1.25,1.25,0,0,0-2.5,0V9.313c.418-.017.828-.062,1.25-.062S17.583,9.3,18,9.313Z" transform="translate(14.221 -3)" fill="#fff"/>
      <path id="Path_121" data-name="Path 121" d="M16.75,19.25a8.273,8.273,0,0,1,1.25.127V8.062C17.585,8.038,17.173,8,16.75,8s-.835.038-1.25.062V19.375A8.608,8.608,0,0,1,16.75,19.25Z" transform="translate(14.221 4.5)" fill="#fff"/>
      <path id="Path_122" data-name="Path 122" d="M15.5,26.475v5.062a1.25,1.25,0,1,0,2.5,0V26.475c-.417.017-.827.062-1.25.062S15.918,26.493,15.5,26.475Z" transform="translate(14.221 32.212)" fill="#fff"/>
      <path id="Path_123" data-name="Path 123" d="M16.75,19.577a8.273,8.273,0,0,1-1.25-.128V30.762c.415.028.828.065,1.25.065s.835-.037,1.25-.062V19.452A8.607,8.607,0,0,1,16.75,19.577Z" transform="translate(14.221 21.673)" fill="#fff"/>
    </g>
    <g id="Group_148" data-name="Group 148" transform="translate(10.694 11)">
      <g id="Group_147" data-name="Group 147">
        <g id="Group_146" data-name="Group 146">
          <g id="Group_145" data-name="Group 145">
            <g id="Group_144" data-name="Group 144">
              <g id="Group_143" data-name="Group 143">
                <path id="Path_124" data-name="Path 124" d="M32.5,60A27.517,27.517,0,0,1,6.325,24.048a1.249,1.249,0,0,1,2.378.768A24.989,24.989,0,1,0,21.91,9.848a1.25,1.25,0,1,1-1.06-2.265A27.5,27.5,0,1,1,32.5,60Zm0-6.25A21.25,21.25,0,1,1,53.75,32.5,21.274,21.274,0,0,1,32.5,53.75Zm0-40A18.75,18.75,0,1,0,51.25,32.5,18.77,18.77,0,0,0,32.5,13.75Zm-22.75,6.9a1.235,1.235,0,0,1-.625-.167,1.25,1.25,0,0,1-.457-1.708,27.759,27.759,0,0,1,7.8-8.617,1.25,1.25,0,1,1,1.46,2.03,25.233,25.233,0,0,0-7.1,7.838A1.243,1.243,0,0,1,9.75,20.648Z" transform="translate(-5 -5)" fill="#fff"/>
              </g>
            </g>
          </g>
        </g>
      </g>
    </g>
    <g id="Group_161" data-name="Group 161" transform="translate(50.704 52.248)">
      <g id="Group_153" data-name="Group 153" transform="translate(6.249)">
        <g id="Group_152" data-name="Group 152">
          <g id="Group_151" data-name="Group 151">
            <g id="Group_150" data-name="Group 150">
              <g id="Group_149" data-name="Group 149">
                <path id="Path_125" data-name="Path 125" d="M24.754,42.191a1.25,1.25,0,0,1-.647-2.32,37.882,37.882,0,0,0,15.225-17.6,1.249,1.249,0,1,1,2.3.965A40.38,40.38,0,0,1,25.4,42.009,1.223,1.223,0,0,1,24.754,42.191Z" transform="translate(-23.504 -21.499)" fill="#fff"/>
              </g>
            </g>
          </g>
        </g>
      </g>
      <g id="Group_160" data-name="Group 160" transform="translate(0 21.252)">
        <g id="Group_159" data-name="Group 159">
          <g id="Group_158" data-name="Group 158">
            <g id="Group_157" data-name="Group 157">
              <g id="Group_156" data-name="Group 156">
                <g id="Group_155" data-name="Group 155">
                  <g id="Group_154" data-name="Group 154">
                    <path id="Path_126" data-name="Path 126" d="M23.5,31.25a1.254,1.254,0,0,1-1.25,1.25h0A1.254,1.254,0,0,1,21,31.25h0A1.254,1.254,0,0,1,22.254,30h0a1.254,1.254,0,0,1,1.25,1.25Z" transform="translate(-21.004 -30)" fill="#fff"/>
                  </g>
                </g>
              </g>
            </g>
          </g>
        </g>
      </g>
    </g>
    <g id="Group_174" data-name="Group 174" transform="translate(1.204 1)">
      <g id="Group_166" data-name="Group 166" transform="translate(0 3.049)">
        <g id="Group_165" data-name="Group 165">
          <g id="Group_164" data-name="Group 164">
            <g id="Group_163" data-name="Group 163">
              <g id="Group_162" data-name="Group 162">
                <path id="Path_127" data-name="Path 127" d="M2.454,22.921a1.26,1.26,0,0,1-.483-.1,1.248,1.248,0,0,1-.67-1.635A40.384,40.384,0,0,1,17.557,2.4a1.251,1.251,0,0,1,1.3,2.14A37.874,37.874,0,0,0,3.607,22.156,1.25,1.25,0,0,1,2.454,22.921Z" transform="translate(-1.204 -2.219)" fill="#fff"/>
              </g>
            </g>
          </g>
        </g>
      </g>
      <g id="Group_173" data-name="Group 173" transform="translate(22)">
        <g id="Group_172" data-name="Group 172">
          <g id="Group_171" data-name="Group 171">
            <g id="Group_170" data-name="Group 170">
              <g id="Group_169" data-name="Group 169">
                <g id="Group_168" data-name="Group 168">
                  <g id="Group_167" data-name="Group 167">
                    <path id="Path_128" data-name="Path 128" d="M12.5,2.25a1.254,1.254,0,0,1-1.25,1.25h0A1.254,1.254,0,0,1,10,2.25h0A1.254,1.254,0,0,1,11.254,1h0A1.254,1.254,0,0,1,12.5,2.25Z" transform="translate(-10.004 -1)" fill="#fff"/>
                  </g>
                </g>
              </g>
            </g>
          </g>
        </g>
      </g>
    </g>
  </g>
</svg>
