<svg xmlns="http://www.w3.org/2000/svg" width="77" height="77" viewBox="0 0 77 77">
  <g id="compass" transform="translate(0)">
    <path id="Path_50" data-name="Path 50" d="M65.723,11.288A38.347,38.347,0,0,0,38.5,0h-.062A38.5,38.5,0,0,0,14,8.763a1.567,1.567,0,1,0,1.993,2.418A35.355,35.355,0,0,1,38.441,3.134H38.5A35.273,35.273,0,1,1,5.206,26.494a1.567,1.567,0,1,0-2.949-1.059A38.517,38.517,0,1,0,65.723,11.288Z" transform="translate(0)" fill="#fff"/>
    <path id="Path_51" data-name="Path 51" d="M77.945,40.389A28.567,28.567,0,1,0,95.177,66.615a1.567,1.567,0,0,0-1.567-1.567H87.88a1.567,1.567,0,1,0,0,3.134h4.114A25.464,25.464,0,0,1,68.182,91.994V87.88a1.567,1.567,0,1,0-3.134,0v4.114A25.464,25.464,0,0,1,41.237,68.182h4.114a1.567,1.567,0,1,0,0-3.134H41.237A25.464,25.464,0,0,1,65.048,41.236V45.35a1.567,1.567,0,0,0,3.134,0V41.236A25.184,25.184,0,0,1,76.7,43.265a1.567,1.567,0,1,0,1.244-2.876Z" transform="translate(-28.115 -27.115)" fill="#fff"/>
    <path id="Path_52" data-name="Path 52" d="M120.984,96.773l-13.868,5.617a8.024,8.024,0,0,0-4.566,4.277,1.618,1.618,0,0,0-.106.209L96.7,121.055a1.567,1.567,0,0,0,2.04,2.041l14.179-5.741a1.538,1.538,0,0,0,.195-.1,8.022,8.022,0,0,0,4.151-4.233c0-.011.011-.02.016-.031l5.741-14.179a1.567,1.567,0,0,0-2.04-2.041Zm-11.107,8.264a4.878,4.878,0,1,1-1.915.39l.02-.007.113-.046A4.873,4.873,0,0,1,109.876,105.037Zm-6.922,8.93a8.046,8.046,0,0,0,2.875,2.877L101,118.8Zm13.836-8.107a8.058,8.058,0,0,0-2.85-2.853l4.79-1.94Z" transform="translate(-71.363 -71.416)" fill="#fff"/>
  </g>
</svg>
