<svg width="128" height="128" xmlns="http://www.w3.org/2000/svg" clip-rule="evenodd">

 <g>
  <title>background</title>
  <rect fill="none" id="canvas_background" height="402" width="582" y="-1" x="-1"/>
 </g>
 <g>
  <title>Layer 1</title>
  <rect stroke="null" fill="none" y="0.166" x="0.616" width="128" id="Edit" height="128"/>
  <path stroke="null" fill="#ffffff" id="svg_1" d="m111.112183,68.917461c1.291391,0.56075 1.387995,0.78505 1.476827,2.091986c0,10.422179 0.033312,20.843247 0,31.265426c-0.117702,12.494178 -10.899649,24.151117 -24.276592,24.276592c-20.831033,0.064403 -41.660955,0.066624 -62.491988,0c-12.561912,-0.119923 -24.143345,-10.878552 -24.26993,-24.27104c-0.066624,-20.832143 -0.066624,-41.665397 0,-62.49754c0.118812,-12.604107 10.868558,-24.227735 24.424275,-24.27104l49.081733,0c1.633393,0.11215 1.946525,0.67401 2.174156,1.768861c0.267605,1.29028 -0.793933,2.57834 -2.174156,2.672724c-16.402773,0 -32.805546,-0.051078 -49.208318,0.00111c-10.277827,0.096604 -19.752838,8.902046 -19.857215,19.857215c-0.065513,20.813266 -0.065513,41.626533 0,62.44091c0.098825,10.331126 8.903157,19.752838 19.857215,19.857215c20.812156,0.066624 41.624312,0.064403 62.436468,0c10.338899,-0.096604 19.828345,-9.188529 19.862767,-19.990463l0,-31.109971c0.097715,-1.434632 1.420197,-2.525041 2.964758,-2.091986zm5.670793,-67.925157c7.403012,0.146572 13.324754,9.44503 8.419024,16.494936l-39.214752,55.626408c-0.269826,0.339781 -0.355327,0.417509 -0.720647,0.651803l-17.856281,10.120151c-1.562327,0.769505 -3.567703,-0.545205 -3.262344,-2.416222l4.37274,-19.624032c0.103267,-0.375314 0.144352,-0.468587 0.353106,-0.797264l39.213642,-55.625298c1.975395,-2.765997 5.222193,-4.45713 8.695513,-4.430481zm-0.207644,4.440474c-1.912102,0.033312 -3.748698,0.997136 -4.865756,2.560574l-38.950478,55.251094l-3.189058,14.310786l13.073805,-7.408563c12.988304,-18.424804 26.09098,-36.77077 38.966024,-55.274413c2.372917,-3.50219 -0.018877,-9.225172 -4.739171,-9.435037c-0.098825,-0.003331 -0.197651,-0.004442 -0.295365,-0.004442z"/>
 </g>
</svg>
