<?xml version="1.0" ?><svg style="enable-background:new 0 0 48 48;" version="1.1" viewBox="0 0 48 48" xml:space="preserve" xmlns="http://www.w3.org/2000/svg" xmlns:xlink="http://www.w3.org/1999/xlink"><style type="text/css">
	.st0{display:none;}
	.st1{fill:none;stroke:#303030;stroke-width:0.7;stroke-linecap:round;stroke-linejoin:round;stroke-miterlimit:10;}
	.st2{fill:#303030;}
</style><g class="st0" id="Padding__x26__Artboard"/><g id="Icons"><g><g><line class="st1" x1="32.38981" x2="32.38981" y1="19.41764" y2="25.72245"/><line class="st1" x1="35.54222" x2="29.23741" y1="22.57005" y2="22.57005"/></g><path class="st1" d="M21.15329,27.49347c2.70811-0.06155,4.18527-4.36991,4.18527-4.36991    c1.05705-0.42282,1.56976-2.39212,0.81141-3.2587c-0.22946-0.2622-0.59601-0.52355-0.88032-0.72235l0.00983,0.01243    c0.04432-0.2068,0.05909-0.42837,0.05909-0.64995c0-2.30436-1.87598-4.18034-4.18034-4.18034    c-2.31913,0-4.19511,1.87598-4.19511,4.18034c0,0.22157,0.01477,0.44315,0.05909,0.64995    c-0.28431,0.1988-0.63611,0.44773-0.86557,0.70992c-0.75836,0.86658-0.24565,2.83588,0.81141,3.2587    C16.96802,23.12356,18.44518,27.43192,21.15329,27.49347"/><path class="st1" d="M13.34408,29.8643l0.38406-0.22157l3.61903-2.14187c1.27035,1.34421,2.55547,1.97939,3.87014,1.97939    c1.34421,0,2.71796-0.67949,4.12126-1.97939l4.16557,2.1271l0.22157,0.1034c0.66472,0.35452,1.12264,1.04878,1.12264,1.84644    c0,1.15218-0.94538,2.09756-2.09756,2.09756H14.54057c-1.15218,0-2.08279-0.94538-2.08279-2.09756    C12.45778,30.86876,12.8123,30.24836,13.34408,29.8643l0.38406-0.22157"/></g></g></svg>