<svg xmlns="http://www.w3.org/2000/svg" xmlns:xlink="http://www.w3.org/1999/xlink" width="303.902" height="91" viewBox="0 0 303.902 91">
  <defs>
    <filter id="Huggo" x="117.902" y="0" width="186" height="91" filterUnits="userSpaceOnUse">
      <feOffset dy="3" input="SourceAlpha"/>
      <feGaussianBlur stdDeviation="3" result="blur"/>
      <feFlood flood-opacity="0.161"/>
      <feComposite operator="in" in2="blur"/>
      <feComposite in="SourceGraphic"/>
    </filter>
  </defs>
  <g id="Group_176" data-name="Group 176" transform="translate(-55.098 -12)">
    <line id="Line_56" data-name="Line 56" y2="86" transform="translate(157.5 13.5)" fill="none" stroke="#707070" stroke-width="1"/>
    <g transform="matrix(1, 0, 0, 1, 55.1, 12)" filter="url(#Huggo)">
      <text id="Huggo-2" data-name="Huggo" transform="translate(126.9 65)" fill="#fff" font-size="55" font-family="SegoeUI, Segoe UI"><tspan x="0" y="0">Huggo</tspan></text>
    </g>
    <g id="explore_2" transform="translate(50.425 98.585) rotate(-88)">
      <g id="Group_22" data-name="Group 22" transform="translate(9.405 35.138)">
        <g id="Group_21" data-name="Group 21" transform="translate(0 0)">
          <path id="Path_34" data-name="Path 34" d="M107.826,244.987c.016.032.032.079.048.111a1.22,1.22,0,0,0,1.637.429q10.54-4.722,21.064-9.427l18.028-8.06c3.243-1.447,6.5-2.909,9.745-4.356-.207.048-.4.111-.6.159a3.26,3.26,0,0,0,1.224-.445c.636-.286,1.272-.572,1.892-.843,1.176-.525,2.369-1.049,3.545-1.59A12.138,12.138,0,0,0,171.479,211a12.018,12.018,0,0,0-6.55-11.685,12.467,12.467,0,0,0-10.89.016c-2.432,1.1-4.881,2.178-7.313,3.275a1.22,1.22,0,0,0-.429,1.637,1.239,1.239,0,0,0,1.637.429c2-.89,4.006-1.8,6.009-2.687.763-.334,1.51-.715,2.305-1a9.631,9.631,0,0,1,7.09,17.9c-2.051.938-4.117,1.844-6.184,2.766.207-.048.4-.111.6-.159a3.194,3.194,0,0,0-1.113.382c-.541.238-1.1.493-1.637.731-1.892.843-3.784,1.685-5.675,2.544q-6.748,3.028-13.513,6.041-8.442,3.792-16.9,7.567c-3.529,1.574-7.074,3.164-10.6,4.737.541.143,1.081.286,1.637.429-.016-.032-.032-.079-.048-.111a1.22,1.22,0,0,0-1.637-.429,1.156,1.156,0,0,0-.445,1.606Z" transform="translate(-97.52 -198.069)" fill="#fff" stroke="#fff" stroke-width="1"/>
          <path id="Path_35" data-name="Path 35" d="M71.395,286.522c-3.545,1.59-7.074,3.164-10.62,4.753L50.426,295.9c-2.019.906-4.054,1.812-6.073,2.718a1.22,1.22,0,0,0-.429,1.637,1.239,1.239,0,0,0,1.637.429c2.83-1.272,5.644-2.528,8.473-3.784q7.2-3.219,14.419-6.454l4.149-1.86a1.2,1.2,0,0,0-1.208-2.067Z" transform="translate(-43.777 -272.336)" fill="#fff" stroke="#fff" stroke-width="1"/>
        </g>
      </g>
      <g id="Group_24" data-name="Group 24" transform="translate(2.907 35.04)">
        <g id="Group_23" data-name="Group 23" transform="translate(0 0)">
          <path id="Path_36" data-name="Path 36" d="M17.277,221.1c-1.971-.89-3.943-1.765-5.914-2.655a9.871,9.871,0,0,1-6.041-8.092,9.766,9.766,0,0,1,5.85-9.745,9.618,9.618,0,0,1,5.548-.588,14.516,14.516,0,0,1,2.989,1.049c2.273,1.017,4.531,2.035,6.8,3.036a1.243,1.243,0,0,0,1.637-.429,1.209,1.209,0,0,0-.429-1.637c-2.194-.986-4.4-1.971-6.6-2.957a19.825,19.825,0,0,0-3.338-1.288,12,12,0,0,0-8.807,22.082c2.242,1.272,4.753,2.178,7.106,3.243a1.243,1.243,0,0,0,1.637-.429,1.184,1.184,0,0,0-.445-1.59Z" transform="translate(-2.907 -197.451)" fill="#fff" stroke="#fff" stroke-width="1"/>
          <path id="Path_37" data-name="Path 37" d="M249.116,422.028q9.8,4.388,19.586,8.76l2.766,1.24a1.22,1.22,0,0,0,1.637-.429c.016-.032.032-.079.048-.111a1.243,1.243,0,0,0-.429-1.637,1.209,1.209,0,0,0-1.637.429c-.016.032-.032.08-.048.111.541-.143,1.081-.286,1.637-.429q-9.8-4.388-19.586-8.76l-2.766-1.24a1.243,1.243,0,0,0-1.637.429,1.209,1.209,0,0,0,.429,1.637Z" transform="translate(-209.485 -384.47)" fill="#fff" stroke="#fff" stroke-width="1"/>
          <path id="Path_38" data-name="Path 38" d="M416.382,347.585h0c-.207-.048-.4-.111-.6-.159,2.035.906,4.07,1.812,6.089,2.734a1.243,1.243,0,0,0,1.637-.429,1.209,1.209,0,0,0-.429-1.637c-1.065-.477-2.146-.954-3.211-1.431-.7-.318-1.415-.636-2.114-.954a4.086,4.086,0,0,0-1.367-.509,1.193,1.193,0,0,0,0,2.385Z" transform="translate(-349.677 -321.712)" fill="#fff" stroke="#fff" stroke-width="1"/>
        </g>
      </g>
      <g id="Group_26" data-name="Group 26" transform="translate(59.399 60.357)">
        <g id="Group_25" data-name="Group 25">
          <path id="Path_39" data-name="Path 39" d="M375.257,357.8a12.32,12.32,0,0,0-8.124-.7,11.993,11.993,0,1,0,8.124.7c-1.383-.636-2.591,1.415-1.208,2.067a9.625,9.625,0,1,1-12.4,4.483,9.753,9.753,0,0,1,12.4-4.483,1.239,1.239,0,0,0,1.637-.429A1.2,1.2,0,0,0,375.257,357.8Z" transform="translate(-358.256 -356.704)" fill="#fff" stroke="#fff" stroke-width="1"/>
        </g>
      </g>
      <g id="Group_28" data-name="Group 28" transform="translate(2.92 60.371)">
        <g id="Group_27" data-name="Group 27" transform="translate(0)">
          <path id="Path_40" data-name="Path 40" d="M25.867,363.755A11.99,11.99,0,0,0,3.261,366.2a12,12,0,0,0,19.141,12,12.18,12.18,0,0,0,3.466-14.451,1.2,1.2,0,0,0-2.067,1.208,9.63,9.63,0,0,1-13.37,12.3,9.613,9.613,0,0,1,1.049-17.455A9.764,9.764,0,0,1,23.8,364.979C24.452,366.362,26.5,365.138,25.867,363.755Z" transform="translate(-2.989 -356.791)" fill="#fff" stroke="#fff" stroke-width="1"/>
        </g>
      </g>
      <g id="Group_30" data-name="Group 30" transform="translate(24.509 4.341)">
        <g id="Group_29" data-name="Group 29" transform="translate(0 0)">
          <path id="Path_41" data-name="Path 41" d="M167.9,16.225c-2.162-2.925-4.451-5.771-6.852-8.505-.366-.429-.747-.843-1.129-1.256-.3-.334-.6-.652-.906-.986-.159-.175-.318-.334-.477-.509s-.3-.493-.079-.048a1.207,1.207,0,0,0-1.876-.238A126.551,126.551,0,0,0,145.195,18.69a45.216,45.216,0,0,0-5.421,9.968,16.229,16.229,0,0,0-.382,9.984,18.672,18.672,0,0,0,35.9.541,16.43,16.43,0,0,0-.429-11.065A54.079,54.079,0,0,0,167.9,16.225a1.243,1.243,0,0,0-1.637-.429,1.209,1.209,0,0,0-.429,1.637,57.742,57.742,0,0,1,6.2,10.095,15.179,15.179,0,0,1,1.622,7.71,16.3,16.3,0,0,1-31.493,4.245,14.16,14.16,0,0,1-.4-9.3,37.278,37.278,0,0,1,4.531-8.855A115.08,115.08,0,0,1,158.247,6.385l-1.876-.238a4.38,4.38,0,0,0,.715.827c.334.366.668.715.986,1.081.35.382.7.779,1.049,1.161,2.337,2.655,4.578,5.389,6.677,8.235a1.243,1.243,0,0,0,1.637.429A1.217,1.217,0,0,0,167.9,16.225Z" transform="translate(-138.786 -4.341)" fill="#fff" stroke="#fff" stroke-width="1"/>
          <path id="Path_42" data-name="Path 42" d="M193.634,155.65c-3.338-1.908-5.6-6.359-4.451-10.127a20.63,20.63,0,0,1,3.052-5.675,54.752,54.752,0,0,1,4.149-5.214c.668-.747,1.351-1.463,2.019-2.194h-1.685a58.005,58.005,0,0,1,5.008,5.8c2.353,3.116,5.214,6.915,4.324,11.049-.318,1.494,1.971,2.13,2.305.636a10.134,10.134,0,0,0-.461-6.025,29.406,29.406,0,0,0-3.736-6.359,59.822,59.822,0,0,0-5.739-6.772,1.2,1.2,0,0,0-1.685,0,72.432,72.432,0,0,0-6.534,7.9A22.728,22.728,0,0,0,186.877,145a10.022,10.022,0,0,0,.366,6.391,12.284,12.284,0,0,0,5.2,6.359,1.209,1.209,0,0,0,1.192-2.1Z" transform="translate(-178.926 -110.38)" fill="#fff" stroke="#fff" stroke-width="1"/>
        </g>
      </g>
      <g id="Group_32" data-name="Group 32" transform="translate(46.734 42.399)">
        <g id="Group_31" data-name="Group 31">
          <path id="Path_43" data-name="Path 43" d="M280.374,252.954a12.162,12.162,0,0,0,5.421-7.726c.366-1.494-1.939-2.13-2.305-.636a9.839,9.839,0,0,1-4.324,6.311,1.191,1.191,0,0,0,1.208,2.051Z" transform="translate(-278.592 -243.74)" fill="#fff" stroke="#fff" stroke-width="1"/>
        </g>
      </g>
    </g>
  </g>
</svg>
