<svg xmlns="http://www.w3.org/2000/svg" width="70.035" height="72" viewBox="0 0 70.035 72">
  <g id="Icons" transform="translate(-12.2 -11.898)">
    <g id="Group_39" data-name="Group 39" transform="translate(13.7 13.398)">
      <path id="Path_53" data-name="Path 53" d="M22.07,31.862A6.716,6.716,0,0,1,28.35,27.6a6.76,6.76,0,0,1,6.28,4.263" transform="translate(5.167 18.613)" fill="none" stroke="#fff" stroke-linecap="round" stroke-linejoin="round" stroke-miterlimit="10" stroke-width="3"/>
      <path id="Path_54" data-name="Path 54" d="M80.735,47.811v31.4A3.191,3.191,0,0,1,77.544,82.4H53.986V66.379a6.488,6.488,0,0,0-.488-2.506,6.76,6.76,0,0,0-6.28-4.263,6.716,6.716,0,0,0-6.28,4.263,6.488,6.488,0,0,0-.488,2.506V82.4H16.892A3.191,3.191,0,0,1,13.7,79.207v-31.4a5.352,5.352,0,0,1,1.568-3.784L44.961,14.333a3.191,3.191,0,0,1,4.513,0L79.168,44.026A5.352,5.352,0,0,1,80.735,47.811Z" transform="translate(-13.7 -13.398)" fill="none" stroke="#fff" stroke-linecap="round" stroke-linejoin="round" stroke-miterlimit="10" stroke-width="3"/>
      <line id="Line_25" data-name="Line 25" y2="12.045" transform="translate(5.394 39.401)" fill="none" stroke="#fff" stroke-linecap="round" stroke-linejoin="round" stroke-miterlimit="10" stroke-width="3"/>
      <line id="Line_26" data-name="Line 26" y2="2.893" transform="translate(5.394 56.845)" fill="none" stroke="#fff" stroke-linecap="round" stroke-linejoin="round" stroke-miterlimit="10" stroke-width="3"/>
    </g>
  </g>
</svg>
