<svg xmlns="http://www.w3.org/2000/svg" width="69" height="69" viewBox="0 0 69 69">
  <g id="expanded2" transform="translate(-48.501 -48.5)">
    <g id="Group_175" data-name="Group 175" transform="translate(49.001 49)">
      <path id="Path_129" data-name="Path 129" d="M280.328,117H247.314a1.314,1.314,0,1,1,0-2.628h31.7V51.628h-31.7a1.314,1.314,0,1,1,0-2.628h33.014a1.314,1.314,0,0,1,1.314,1.314v65.372A1.314,1.314,0,0,1,280.328,117Z" transform="translate(-213.643 -49)" fill="#fff" stroke="#fff" stroke-width="1"/>
      <path id="Path_130" data-name="Path 130" d="M52.861,176.923A3.861,3.861,0,0,1,56.5,179.49a1.311,1.311,0,0,1,.223-.02H95.6L84.371,168.244a1.314,1.314,0,0,1,1.858-1.858L99.7,179.854a1.314,1.314,0,0,1,0,1.858L86.23,195.181a1.314,1.314,0,0,1-1.858-1.858L95.6,182.1H56.721a1.311,1.311,0,0,1-.223-.02,3.86,3.86,0,1,1-3.637-5.154Zm0,5.092a1.232,1.232,0,1,0-1.232-1.232A1.233,1.233,0,0,0,52.861,182.015Z" transform="translate(-49.001 -146.783)" fill="#fff" stroke="#fff" stroke-width="1"/>
    </g>
  </g>
</svg>
