<svg xmlns="http://www.w3.org/2000/svg" width="69.01" height="69" viewBox="0 0 69.01 69">
  <g id="expanded" transform="translate(-48.491 -48.5)">
    <g id="Group_175" data-name="Group 175" transform="translate(49.001 49)">
      <path id="Path_129" data-name="Path 129" d="M280.328,117H247.314a1.314,1.314,0,1,1,0-2.628h31.7V51.628h-31.7a1.314,1.314,0,1,1,0-2.628h33.014a1.314,1.314,0,0,1,1.314,1.314v65.372A1.314,1.314,0,0,1,280.328,117Z" transform="translate(-213.643 -49)" fill="#fff" stroke="#fff" stroke-width="1"/>
      <path id="Path_130" data-name="Path 130" d="M96.223,176.923a3.861,3.861,0,0,0-3.637,2.566,1.311,1.311,0,0,0-.223-.02H53.487l11.226-11.225a1.314,1.314,0,0,0-1.858-1.858L49.386,179.854a1.314,1.314,0,0,0,0,1.858l13.469,13.469a1.314,1.314,0,1,0,1.858-1.858L53.487,182.1H92.363a1.311,1.311,0,0,0,.223-.02,3.86,3.86,0,1,0,3.637-5.154Zm0,5.092a1.232,1.232,0,1,1,1.232-1.232A1.233,1.233,0,0,1,96.223,182.015Z" transform="translate(-49.001 -146.783)" fill="#fff" stroke="#fff" stroke-width="1"/>
    </g>
  </g>
</svg>
