<svg xmlns="http://www.w3.org/2000/svg" width="50.242" height="50.243" viewBox="0 0 50.242 50.243">
  <g id="search" transform="translate(-0.001 0)">
    <g id="Group_14" data-name="Group 14" transform="translate(0.001 0)">
      <path id="Path_22" data-name="Path 22" d="M44.281,34.793A20.387,20.387,0,0,0,15.451,5.961a19.991,19.991,0,0,0-3.067,24.6.857.857,0,0,1-.118,1.022l-10.4,10.4c-2.07,2.07-2.563,4.965-.727,6.8l.316.316c1.836,1.836,4.731,1.344,6.8-.727L18.634,38a.87.87,0,0,1,1.044-.14A19.991,19.991,0,0,0,44.281,34.793ZM19.214,31.029a15.064,15.064,0,1,1,21.3,0A15.081,15.081,0,0,1,19.214,31.029Z" transform="translate(-0.001 0)" fill="#fff"/>
      <g id="Group_13" data-name="Group 13" transform="translate(18.411 8.159)">
        <path id="Path_23" data-name="Path 23" d="M115.856,61.417a2.105,2.105,0,0,1-1.937-2.925,13.261,13.261,0,0,1,17.361-7.037,2.1,2.1,0,1,1-1.64,3.875,9.048,9.048,0,0,0-11.845,4.8A2.1,2.1,0,0,1,115.856,61.417Z" transform="translate(-113.752 -50.409)" fill="#fff"/>
      </g>
    </g>
  </g>
</svg>
