<svg width="48" height="48" xmlns="http://www.w3.org/2000/svg">

 <g>
  <title>background</title>
  <rect fill="none" id="canvas_background" height="402" width="582" y="-1" x="-1"/>
 </g>
 <g>
  <title>Layer 1</title>
  <line stroke-miterlimit="10" stroke-linejoin="round" stroke-linecap="round" stroke-width="0.7" stroke="#303030" fill="none" id="svg_4" y2="22.57005" y1="22.57005" x2="29.23741" x1="35.54222" class="st1"/>
  <path stroke-miterlimit="10" stroke-linejoin="round" stroke-linecap="round" stroke-width="0.7" stroke="#303030" fill="none" id="svg_5" d="m21.15329,27.49347c2.70811,-0.06155 4.18527,-4.36991 4.18527,-4.36991c1.05705,-0.42282 1.56976,-2.39212 0.81141,-3.2587c-0.22946,-0.2622 -0.59601,-0.52355 -0.88032,-0.72235l0.00983,0.01243c0.04432,-0.2068 0.05909,-0.42837 0.05909,-0.64995c0,-2.30436 -1.87598,-4.18034 -4.18034,-4.18034c-2.31913,0 -4.19511,1.87598 -4.19511,4.18034c0,0.22157 0.01477,0.44315 0.05909,0.64995c-0.28431,0.1988 -0.63611,0.44773 -0.86557,0.70992c-0.75836,0.86658 -0.24565,2.83588 0.81141,3.2587c-0.00003,0 1.47713,4.30836 4.18524,4.36991" class="st1"/>
  <path stroke-miterlimit="10" stroke-linejoin="round" stroke-linecap="round" stroke-width="0.7" stroke="#303030" fill="none" id="svg_6" d="m13.34408,29.8643l0.38406,-0.22157l3.61903,-2.14187c1.27035,1.34421 2.55547,1.97939 3.87014,1.97939c1.34421,0 2.71796,-0.67949 4.12126,-1.97939l4.16557,2.1271l0.22157,0.1034c0.66472,0.35452 1.12264,1.04878 1.12264,1.84644c0,1.15218 -0.94538,2.09756 -2.09756,2.09756l-14.21022,0c-1.15218,0 -2.08279,-0.94538 -2.08279,-2.09756c0,-0.70904 0.35452,-1.32944 0.8863,-1.7135l0.38406,-0.22157" class="st1"/>
 </g>
</svg>