<svg xmlns="http://www.w3.org/2000/svg" width="69.101" height="69" viewBox="0 0 69.101 69">
  <g id="user" transform="translate(-14.003 -14.01)">
    <path id="Path_14" data-name="Path 14" d="M55.544,62.5A19.469,19.469,0,0,1,36.1,43.057v-9.6a19.448,19.448,0,1,1,38.9,0v9.6A19.469,19.469,0,0,1,55.544,62.5Zm0-45.734A16.707,16.707,0,0,0,38.857,33.458v9.6a16.688,16.688,0,0,0,33.375,0v-9.6A16.707,16.707,0,0,0,55.544,16.77Z" transform="translate(-6.849)" fill="#fff"/>
    <path id="Path_15" data-name="Path 15" d="M74.95,103H22.158A8.165,8.165,0,0,1,14,94.839V88.813c0-2.661,1.348-6.229,7.769-8.1l7.9-2.186a1.38,1.38,0,1,1,.736,2.661l-7.878,2.18c-5.764,1.679-5.764,4.513-5.764,5.445V94.84a5.4,5.4,0,0,0,5.4,5.4H74.949a5.4,5.4,0,0,0,5.4-5.4V88.814c0-2.514-1.943-4.346-5.777-5.448l-7.515-2.1a1.38,1.38,0,1,1,.742-2.658l7.525,2.1c6.435,1.851,7.784,5.428,7.784,8.1V94.84A8.162,8.162,0,0,1,74.95,103Z" transform="translate(0 -19.985)" fill="#fff"/>
  </g>
</svg>
